<svg width="300" height="72" viewBox="0 0 300 72" fill="none" xmlns="http://www.w3.org/2000/svg">
<g clip-path="url(#clip0_256_16447)">
<mask id="mask0_256_16447" style="mask-type:luminance" maskUnits="userSpaceOnUse" x="0" y="0" width="300" height="72">
<path d="M300 0.449219H0V71.3484H300V0.449219Z" fill="white"/>
</mask>
<g mask="url(#mask0_256_16447)">
<path d="M44.176 1.54812C41.3672 0.831639 38.4177 0.449219 35.3847 0.449219C15.8418 0.449219 0 16.291 0 35.8339C0 55.3769 15.8418 71.2188 35.3847 71.2188C53.8903 71.2188 69.0771 57.0122 70.6376 38.9108C70.6376 38.9108 70.8574 36.9329 70.1101 36.9329C69.3629 36.9329 69.0552 38.9108 69.0552 38.9108C67.4112 54.3528 54.3386 66.3836 38.4616 66.3836C21.4682 66.3836 7.69234 52.6077 7.69234 35.6141C7.69234 18.6207 21.4682 4.84484 38.4616 4.84484C40.4134 4.84484 42.3255 5.02506 44.176 5.37671C46.0265 5.72397 46.9848 2.26901 44.176 1.55252V1.54812Z" fill="#4AAD52"/>
<path d="M32.7973 20.1559C32.1056 20.5709 31.5328 21.2509 31.2303 21.8784C30.3811 23.6232 30.4846 25.6722 30.9131 27.5757C31.2915 29.235 32.0911 30.8167 32.3187 32.5009C33.0496 37.9177 34.5222 40.5307 35.4344 41.7918C36.2971 42.9887 37.5494 43.8278 38.9676 44.3659C40.7949 45.0654 42.9764 44.7965 44.4997 43.693C46.0146 42.5963 48.0055 40.8563 47.7302 38.0504C47.6524 37.2938 47.2813 36.5803 46.7761 35.9757C44.4623 33.2254 42.0288 34.2683 38.2695 26.3194C37.4442 24.5779 37.1378 22.6171 36.0445 20.9959C35.8141 20.6617 35.5604 20.3256 35.2114 20.1016C34.4028 19.5692 33.538 19.7148 32.805 20.1564L32.7973 20.1559ZM41.6626 42.437C40.9762 42.6949 40.1154 42.8859 39.4296 42.5739C38.7734 42.2793 38.1877 41.6081 37.8211 41.03C37.6759 40.8003 37.9196 40.5056 38.1131 40.7167C38.7377 41.3912 40.1202 42.2637 41.5077 42.0415C41.7853 41.997 41.9289 42.3391 41.6621 42.4445L41.6626 42.437Z" fill="#751E84"/>
<path d="M32.2724 17.9068C32.3286 18.0766 32.4005 18.2476 32.4884 18.4124C32.5628 18.5536 32.5597 18.5909 32.7104 18.5659C33.1212 18.5175 33.45 18.5148 33.8524 18.6608C34.5882 18.9395 35.314 19.3374 35.8378 19.906C36.3616 20.4747 36.6687 21.1078 36.9179 21.7811C35.8347 21.3535 34.7439 20.9254 33.6607 20.4976C33.6374 20.4958 33.6153 20.4789 33.5985 20.4925C33.5752 20.4905 33.5579 20.5117 33.5404 20.5328C33.3665 20.7433 33.3494 21.0419 33.4061 21.3018C33.4976 21.7069 33.6895 22.128 33.8772 22.5036C33.9784 22.6995 34.0877 22.8887 34.2295 23.0655C34.3219 23.1781 34.5326 23.4657 34.6863 23.5011C33.6485 23.2797 32.6852 22.727 31.9983 21.9574C32.1569 23.3433 31.1568 24.7379 29.7505 25.0937C29.9025 25.0538 30.1557 23.042 30.2156 22.7919C30.4165 21.976 30.6638 21.1638 31.0247 20.3987C31.2046 20.0236 31.4524 19.6766 31.6919 19.3365C31.6919 19.3365 31.4964 18.9601 31.317 18.7651C31.1096 18.5303 32.1959 17.6979 32.2646 17.9062L32.2724 17.9068Z" fill="#4AAD52"/>
<path d="M39.4367 42.5819C40.1225 42.8941 40.975 42.7099 41.6697 42.445C41.936 42.3472 41.7929 41.9978 41.5155 42.0422C40.1358 42.265 38.7456 41.3918 38.1209 40.7172C37.9272 40.5062 37.6837 40.8011 37.829 41.0305C38.1955 41.6086 38.7811 42.2799 39.4372 42.5746L39.4367 42.5819Z" fill="white"/>
<path d="M32.5837 30.6348C30.4748 28.9436 28.3126 30.0313 26.6081 31.53C24.9501 32.9892 22.1648 30.0577 20.5 33.8646C20.1552 34.6538 20.0358 35.5159 20.0954 36.3781C20.2746 38.9513 20.918 41.843 23.1397 43.1429C24.8307 44.1244 26.9398 43.879 28.8698 43.5938C30.415 43.3616 32.0531 43.0765 33.1939 42.0154C34.7457 40.5696 34.8718 38.1754 34.7059 36.0597C34.5534 34.0702 34.1356 31.8949 32.5771 30.6413L32.5837 30.6348ZM32.975 33.1815C32.8225 33.2345 32.7164 33.1151 32.6169 33.0023C32.3714 32.7306 32.6169 32.3392 31.3502 31.5831C30.7267 31.205 30.1498 31.2183 29.6457 31.3046C29.2875 31.3643 29.1151 30.8868 29.4599 30.7674C29.838 30.6348 31.0252 30.4093 31.8209 30.8602C33.0215 31.5433 33.1077 32.558 33.154 32.8168C33.1806 32.9693 33.1077 33.1284 32.975 33.1749V33.1815Z" fill="#DD2222"/>
<path d="M25.6332 27.7696C25.7792 27.4846 25.9715 27.2192 26.1838 26.9804C26.4888 26.629 26.8338 26.3172 27.2118 26.0453C27.3179 25.9724 28.3259 25.4418 28.2463 25.3091C28.4255 25.6275 28.5647 25.9791 28.5979 26.3438C28.6442 26.8279 28.4984 27.3122 28.2993 27.7565C28.054 28.3135 27.7225 28.8375 27.3312 29.3083C27.0592 29.6332 26.7607 29.9383 26.4689 30.2369C26.3297 30.3827 26.1838 30.5287 26.0444 30.6679C25.9981 30.7144 25.9318 30.7674 25.8654 30.7408C25.8388 30.7275 25.819 30.6944 25.8057 30.6679C25.6332 30.3495 25.5073 30.0112 25.4276 29.6533C25.315 29.1426 25.315 28.6053 25.4807 28.1146C25.5206 27.9953 25.5669 27.8824 25.6267 27.7696H25.6332Z" fill="#4AAD52"/>
<path d="M31.3502 31.5831C32.6103 32.3393 32.3648 32.7238 32.6169 33.0023C32.7164 33.1151 32.8225 33.2345 32.975 33.1815C33.1077 33.135 33.1741 32.9759 33.154 32.8233C33.1143 32.5647 33.0215 31.5501 31.821 30.867C31.0318 30.4159 29.8447 30.6413 29.46 30.774C29.1151 30.8934 29.281 31.3709 29.6457 31.3113C30.1564 31.2251 30.7267 31.2118 31.3502 31.5898V31.5831Z" fill="white"/>
<path d="M22.6841 22.4179C22.81 23.1526 22.3063 24.0133 22.3063 24.0133C22.5653 24.0904 22.8171 24.2651 23.034 24.4891C23.034 24.4891 23.09 22.9148 23.4259 22.446C23.7616 21.9772 22.5512 21.6904 22.6772 22.4179H22.6841Z" fill="#A37B6D"/>
<path d="M22.7612 33.8369C23.2578 30.9122 24.3494 29.3799 24.4544 26.4132C24.4963 25.3357 23.7827 24.3282 22.5722 23.8244C20.8999 23.1247 19.6405 24.1463 18.479 25.5457C16.7229 27.6586 16.5479 29.3099 15.2535 31.6888C13.3854 35.1103 9.03332 36.3488 9.80997 40.127C10.3207 42.6249 11.5102 44.3041 14.0431 45.3887C16.8138 46.5781 19.3608 46.2422 21.8165 44.5981C25.5319 42.1071 22.0544 38.0001 22.7681 33.8369H22.7612ZM11.6012 41.7502C11.1883 40.9386 10.6146 40.127 10.7965 39.2245C10.9854 38.3079 11.5802 37.5032 12.2938 36.9014C12.5877 36.6495 12.8746 37.0973 12.6367 37.3913C12.1889 37.951 11.853 38.7626 11.7271 39.5323C11.6082 40.2739 11.874 40.8967 12.1679 41.5405C12.3288 41.8902 11.7761 42.0861 11.6082 41.7433L11.6012 41.7502Z" fill="#FFD029"/>
<path d="M12.6437 37.3982C12.8816 37.0975 12.5947 36.6566 12.3008 36.9085C11.5872 37.5103 10.9854 38.3148 10.8035 39.2314C10.6216 40.1341 11.2023 40.9458 11.6081 41.7574C11.7831 42.1002 12.3288 41.9043 12.1679 41.5545C11.881 40.9108 11.6081 40.288 11.7271 39.5464C11.853 38.7767 12.1889 37.9651 12.6367 37.4054L12.6437 37.3982Z" fill="white"/>
<path d="M52.0507 45.6971C51.1498 44.8725 50.178 44.0783 49.0923 43.481C47.6278 45.2927 46.7397 46.822 46.8736 47.6894C47.4811 48.675 49.8408 47.9383 52.8124 46.3782C52.5419 46.1301 52.2793 45.9014 52.0507 45.6971Z" fill="#EE7E2E"/>
<path d="M52.3715 39.891C51.5991 40.6642 50.8721 41.4282 50.2161 42.1685C51.42 42.8775 52.5099 43.7837 53.5292 44.7267C53.8066 44.9808 54.0912 45.2478 54.3629 45.5221C55.2234 45.0269 56.1073 44.4842 57.0088 43.9011C55.9269 42.1921 54.1936 40.9536 52.3777 39.8841L52.3715 39.891Z" fill="#EE7E2E"/>
<path d="M68.5425 34.6412C68.6287 34.5377 68.7082 34.4281 68.7753 34.3323C70.1681 32.301 68.3522 29.4621 65.9211 29.8607C65.2172 29.979 64.2231 30.4357 63.0591 31.1453C65.1379 31.7396 67.0004 33.0564 68.5425 34.6412Z" fill="#EE7E2E"/>
<path d="M60.9848 32.5171C60.1183 33.1377 59.2034 33.8334 58.2716 34.5827C60.047 35.2795 61.7123 36.2456 63.1444 37.5076C63.5594 37.8725 63.9164 38.2603 64.2611 38.662C65.4882 37.6662 66.5543 36.7319 67.377 35.9165C65.6506 34.092 63.469 32.5957 60.9848 32.5171Z" fill="#EE7E2E"/>
<path d="M61.8738 38.6702C60.403 37.417 58.632 36.4438 56.7694 35.8372C55.7085 36.7448 54.6436 37.6988 53.6317 38.6629C54.7139 39.3131 55.753 40.0181 56.688 40.8605C57.3871 41.4858 57.9789 42.1895 58.4617 42.9453C60.0022 41.9055 61.5191 40.8014 62.9193 39.7235C62.6027 39.3532 62.2604 38.9974 61.8735 38.6637L61.8738 38.6702Z" fill="#EE7E2E"/>
<path d="M56.716 40.8918C55.781 40.0494 54.7418 39.3444 53.6597 38.6943C53.6462 38.6885 53.6324 38.6761 53.6191 38.6702C53.1816 39.0827 52.7572 39.4946 52.346 39.9056C52.3595 39.9114 52.3733 39.9238 52.3868 39.9297C54.1892 40.9933 55.9086 42.2194 56.9894 43.9088C57.4786 43.5987 57.9671 43.2754 58.4552 42.9457C57.9731 42.203 57.3951 41.5117 56.7098 40.8987L56.716 40.8918Z" fill="white"/>
<path d="M63.0587 31.1385C63.0587 31.1385 63.0718 31.1378 63.078 31.1309C62.4158 31.5231 61.7052 31.9902 60.9585 32.5186C60.9585 32.5186 60.972 32.5244 60.9723 32.531C60.9789 32.5306 60.9851 32.5237 60.9913 32.5168C63.4624 32.5961 65.6229 34.0673 67.3416 35.8724C67.3555 35.8848 67.3693 35.8972 67.3835 35.9161C67.8516 35.4625 68.234 35.007 68.5425 34.6412C67.0004 33.0565 65.1448 31.7458 63.059 31.1451L63.0587 31.1385Z" fill="white"/>
<path d="M53.5511 44.765C52.5315 43.822 51.4484 42.9156 50.238 42.2068C50.2241 42.1944 50.2041 42.1891 50.1968 42.1764C49.7944 42.6264 49.4174 43.0616 49.0795 43.4883C49.0934 43.5007 49.1076 43.5196 49.1153 43.539C49.1153 43.539 49.1149 43.5324 49.1211 43.5255C50.2064 44.1162 51.185 44.9167 52.0795 45.7416C52.2877 45.9338 52.5365 46.1502 52.7927 46.3793C53.2976 46.1143 53.8145 45.8291 54.3432 45.5232C54.0787 45.2617 53.8146 45.0069 53.5511 44.765Z" fill="white"/>
<path d="M63.1706 37.5061C61.7389 36.2507 60.047 35.2795 58.272 34.5891C57.7682 34.9922 56.7694 35.8372 56.7694 35.8372C58.632 36.4437 60.4292 37.4156 61.9001 38.6688C62.2797 38.9897 62.6085 39.3397 62.9247 39.7035C63.3917 39.3486 63.8389 38.9948 64.2734 38.6482C63.9357 38.2527 63.579 37.8714 63.171 37.5127L63.1706 37.5061Z" fill="white"/>
<path d="M75.1536 23.334C75.6033 23.0194 76.0659 22.7043 76.5066 22.5876C76.9473 22.471 77.3809 22.5783 77.5365 23.0103C77.7381 23.5582 77.4403 24.4693 76.9773 25.1332C76.5146 25.797 75.9361 26.2766 75.3698 26.7357C73.9351 27.901 72.4622 29.0881 70.9905 29.7096C70.5213 29.9068 69.5692 30.2888 69.442 29.6579C69.3146 29.0269 70.177 27.9791 70.5642 27.4904C71.9408 25.756 73.5649 24.4487 75.1471 23.3343L75.1536 23.334Z" fill="#4AAD52"/>
<path d="M68.79 21.9787C68.9843 21.5732 69.1919 21.1669 69.4793 20.8944C69.7668 20.6219 70.1484 20.5084 70.4763 20.7269C70.8928 20.9998 71.0983 21.7381 71.0617 22.3782C71.0251 23.0183 70.8071 23.5895 70.5878 24.1412C70.0345 25.54 69.4689 26.9595 68.6265 28.013C68.3626 28.35 67.8075 29.0123 67.4056 28.6467C67.0037 28.2811 67.1677 27.2128 67.2326 26.7226C67.4639 24.973 68.0934 23.4054 68.7831 21.9725L68.79 21.9787Z" fill="#4AAD52"/>
<path d="M75.8796 29.3908C76.2822 29.2961 76.6919 29.214 77.1226 29.2689C77.5531 29.3238 77.9991 29.5357 78.2302 29.9043C78.526 30.3745 78.3674 30.9492 78.0118 31.2978C77.6564 31.6465 77.1461 31.8131 76.6551 31.972C75.395 32.3777 74.1091 32.7916 72.7278 32.7896C72.2871 32.788 71.3851 32.7725 71.1591 32.2589C70.9331 31.7453 71.6291 31.2526 71.938 31.0117C73.0482 30.1605 74.4702 29.7129 75.8792 29.3843L75.8796 29.3908Z" fill="#4AAD52"/>
<path d="M48.7199 33.1357C50.0561 33.2885 51.392 33.4793 52.7282 33.5937C54.1405 33.716 55.5835 33.8305 56.5072 34.7008C56.4691 33.7235 56.2323 32.7388 55.7209 31.9066C55.0948 30.8912 54.0337 30.2651 52.9114 29.9139C52.0564 29.6467 51.1706 29.5323 50.285 29.4406C48.9033 29.3032 47.4221 29.2344 46.2159 29.9292C45.7578 30.1888 45.3683 30.5476 45.0401 30.9523C44.605 31.4866 44.2538 32.105 43.956 32.7235C43.9179 32.7998 43.8873 32.8762 43.8492 32.9602C45.4677 32.7464 47.1015 32.8532 48.7276 33.1281L48.7199 33.1357Z" fill="#82368C"/>
<path d="M50.7126 29.013C50.7813 28.5473 50.7585 27.99 50.8119 27.5624C50.9034 26.8066 50.9645 26.0509 50.9417 25.2874C50.8883 23.2871 50.2622 21.3479 49.6438 19.4469C49.453 18.8668 49.0482 17.2787 48.8039 17.836C48.1092 19.4239 48.0251 21.1877 47.7656 22.8902C47.7199 23.1954 47.6741 23.5086 47.7275 23.8062C47.7809 24.127 47.9337 24.4169 48.0864 24.6995C48.8116 26.066 49.5368 27.4479 50.2699 28.8069C50.4454 29.1276 50.5675 29.2191 50.6745 29.181C50.6896 29.12 50.6973 29.0589 50.7202 28.9977L50.7126 29.013Z" fill="#4AAD52"/>
<path d="M56.7439 19.7064C56.0111 20.8822 55.2476 22.2411 54.5071 23.4475C53.8046 24.5927 53.4381 25.7608 52.6365 26.8295C52.1862 27.4252 51.354 27.9519 51.2165 28.6848C51.2089 28.7382 51.2089 28.8069 51.2546 28.8298C51.2776 28.8375 51.3082 28.8298 51.3387 28.8298C51.9724 28.6467 52.6748 28.1961 53.2092 27.8145C54.82 26.6693 57.1639 24.1346 57.202 21.5389C57.202 21.096 57.3241 19.8058 57.0569 19.5462C56.9271 19.4241 56.8126 19.5843 56.7363 19.699L56.7439 19.7064Z" fill="#4AAD52"/>
<path d="M56.4844 35.1513C56.4844 34.9986 56.4844 34.8535 56.4767 34.7008C55.5529 33.8535 54.1329 33.7388 52.7282 33.6167C51.3997 33.5023 50.0561 33.3114 48.7199 33.1587C47.1015 32.8838 45.4677 32.7769 43.8643 32.9906C43.4444 33.8992 43.1009 34.8841 43.2766 35.8612C43.4827 37.0523 44.4064 38.1364 45.2386 38.9762C45.7578 39.503 46.3763 39.9153 46.8953 40.442C47.4144 40.9689 47.865 41.5643 48.2389 42.2057C48.2925 42.3049 48.3536 42.4042 48.4604 42.4423C48.5674 42.4806 48.6818 42.4346 48.7659 42.3583C48.8497 42.2819 48.9033 42.1904 48.9567 42.0911C49.4147 41.3429 50.1629 40.8391 51.0181 40.6711C51.5371 40.5643 52.0639 40.5413 52.5831 40.4343C53.797 40.1748 54.904 39.419 55.5835 38.3808C56.2095 37.434 56.4767 36.2888 56.492 35.159L56.4844 35.1513Z" fill="#F7EAD0"/>
<path d="M54.2627 31.9829C54.4272 31.9829 54.5605 31.8497 54.5605 31.6851C54.5605 31.5207 54.4272 31.3875 54.2627 31.3875C54.0983 31.3875 53.965 31.5207 53.965 31.6851C53.965 31.8497 54.0983 31.9829 54.2627 31.9829Z" fill="white"/>
<path d="M53.339 31.5324C53.5792 31.5324 53.774 31.3375 53.774 31.0973C53.774 30.8569 53.5792 30.6621 53.339 30.6621C53.0986 30.6621 52.9037 30.8569 52.9037 31.0973C52.9037 31.3375 53.0986 31.5324 53.339 31.5324Z" fill="white"/>
<path d="M54.881 32.4563C54.9822 32.4563 55.0644 32.3742 55.0644 32.2729C55.0644 32.1718 54.9822 32.0897 54.881 32.0897C54.7799 32.0897 54.6979 32.1718 54.6979 32.2729C54.6979 32.3742 54.7799 32.4563 54.881 32.4563Z" fill="white"/>
<path d="M63.9691 51.2998H12.9405C15.2765 55.193 18.4987 58.4985 22.327 60.9596H54.5909C58.4193 58.4985 61.6372 55.1888 63.9733 51.2998H63.9691Z" fill="#E1B085"/>
<path d="M8.93076 39.0883C9.31509 42.6492 10.2973 46.027 11.779 49.1126H65.4908C66.9726 46.027 67.9631 42.6535 68.3475 39.0883H8.93076Z" fill="#E1B085"/>
<path d="M95.7299 49.8663C95.6061 49.7072 95.5531 49.5127 95.5531 49.2829V47.7269C95.5531 46.1002 95.4824 44.2439 95.3586 42.2106C95.2525 40.0359 95.1995 38.1973 95.1995 36.6944C95.1995 35.2975 95.1288 32.5926 95.005 28.5614C94.8459 24.9369 94.7752 22.2142 94.7752 20.4284C94.7752 20.3046 94.8282 20.1809 94.952 20.0925C95.0757 20.0041 95.1995 19.951 95.3586 19.951C95.8183 19.951 96.0658 20.1455 96.0658 20.5344C96.0658 25.3259 96.1013 28.9149 96.1897 31.3018L96.3842 38.268C96.3842 39.3641 96.4549 41.1322 96.614 43.5898L96.8439 48.4164C96.8439 48.4164 96.8792 48.5402 96.9676 48.5402C96.9853 48.5578 97.1621 48.5755 97.4803 48.5755H99.8849C100.221 48.5755 100.398 48.8053 100.398 49.2829C100.398 49.495 100.362 49.6718 100.274 49.8132C100.203 49.9547 100.079 50.0254 99.9202 50.0254L99.655 50.0608H99.3368C98.7886 50.0784 97.7455 50.0961 96.1897 50.0961C96.0128 50.0961 95.8536 50.0254 95.7476 49.8663H95.7299Z" fill="black"/>
<path d="M111.465 50.0784C111.359 49.99 111.289 49.7425 111.236 49.3536C111.006 47.4617 110.864 46.2772 110.811 45.8176L110.617 44.2616C110.051 44.1378 109.397 44.0671 108.672 44.0671L107.275 43.9964C106.656 43.9257 106.197 43.8727 105.914 43.8727C105.755 43.8727 105.666 43.9434 105.649 44.0671C105.649 44.1378 105.649 44.1909 105.613 44.1909L105.543 44.9688C105.525 45.4284 105.366 46.3656 105.118 47.7623C104.994 48.4696 104.835 49 104.658 49.3889C104.446 49.8309 104.252 50.0431 104.075 50.0431C103.916 50.0431 103.757 49.9724 103.562 49.8309C103.386 49.6895 103.297 49.5481 103.297 49.3889L103.333 49.2652L103.368 49.1414C103.828 47.3026 104.216 45.4638 104.535 43.6605L104.994 41.256L105.454 38.3033L105.878 35.7397C106.002 35.0325 106.25 33.9185 106.586 32.3628C106.957 30.5947 107.169 29.3925 107.24 28.7382C107.257 28.6674 107.311 28.1724 107.399 27.3061C107.505 26.3161 107.593 25.5911 107.664 25.1314C107.735 24.4596 107.823 24.0707 107.894 23.9646H108.159C108.159 23.9646 108.336 23.9999 108.424 23.9999C108.743 23.9999 108.973 23.9292 109.132 23.7701C109.308 23.7701 109.468 23.8231 109.627 23.9469C109.768 24.0707 109.839 24.1944 109.839 24.3535C109.839 25.5911 109.927 27.0233 110.104 28.6321C110.21 29.4632 110.281 30.1527 110.334 30.7007C110.617 34.0423 111.342 40.319 112.509 49.5304V49.6541C112.509 49.9193 112.402 50.1138 112.19 50.2375C111.801 50.2375 111.554 50.1845 111.448 50.0961L111.465 50.0784ZM110.422 43.2185C110.157 39.4878 109.662 33.9716 108.937 26.6874L106.833 37.0656C106.232 40.0538 105.932 41.9278 105.932 42.7056C105.932 42.8296 106.427 42.9533 107.417 43.0594C108.407 43.1655 109.273 43.2185 110.016 43.2185H110.405H110.422Z" fill="black"/>
<path d="M126.246 50.1315C125.751 49.9724 125.327 49.7602 124.991 49.4773C124.637 49.1943 124.319 48.77 124.001 48.1866C123.453 47.1435 123.134 45.6583 123.028 43.7135C122.975 42.8294 122.958 42.0515 122.958 41.3797V36.9419C122.958 35.2622 123.011 33.618 123.117 32.0444C123.188 30.8775 123.311 29.8875 123.47 29.0917C123.63 28.2962 123.877 27.4829 124.213 26.6872C124.584 25.8563 124.973 25.2728 125.415 24.9369C125.592 24.7778 125.946 24.601 126.458 24.3889C126.794 24.2649 127.113 24.1235 127.431 23.9644H129.11C129.11 23.9644 129.181 23.9998 129.234 23.9998L129.429 24.0351L129.588 24.1589C129.588 24.1589 129.712 24.2826 129.712 24.318C129.729 24.3712 129.747 24.4419 129.747 24.548L129.234 25.1314H127.608C127.113 25.1314 126.671 25.3789 126.264 25.8563C125.857 26.3336 125.557 26.9347 125.345 27.6597C125.132 28.3139 124.973 29.0741 124.832 29.9582C124.708 30.8422 124.62 31.6024 124.602 32.2565C124.549 33.0876 124.531 33.6533 124.531 33.9716L124.461 34.166C124.461 35.6159 124.443 36.9242 124.39 38.091L124.319 42.0162C124.319 43.1653 124.39 44.2086 124.549 45.1632C124.673 46.2063 125.062 47.1258 125.68 47.9567C126.282 48.7877 127.201 49.1945 128.439 49.1945C128.828 49.1945 129.146 49.0707 129.411 48.8407C129.8 48.8407 129.995 48.9821 129.995 49.2652C129.995 49.442 129.835 49.6541 129.517 49.9016C129.199 50.1492 128.863 50.3436 128.527 50.4674H127.236L126.299 50.1138L126.246 50.1315Z" fill="black"/>
<path d="M141.381 50.0784C141.274 49.99 141.204 49.7425 141.151 49.3536C140.921 47.4617 140.779 46.2772 140.726 45.8176L140.532 44.2616C139.966 44.1378 139.312 44.0671 138.587 44.0671L137.19 43.9964C136.572 43.9257 136.112 43.8727 135.829 43.8727C135.67 43.8727 135.581 43.9434 135.564 44.0671C135.564 44.1378 135.564 44.1909 135.528 44.1909L135.458 44.9688C135.44 45.4284 135.281 46.3656 135.033 47.7623C134.91 48.4696 134.75 49 134.574 49.3889C134.362 49.8309 134.167 50.0431 133.99 50.0431C133.831 50.0431 133.672 49.9724 133.477 49.8309C133.301 49.6895 133.212 49.5481 133.212 49.3889L133.248 49.2652L133.283 49.1414C133.743 47.3026 134.132 45.4638 134.45 43.6605L134.91 41.256L135.369 38.3033L135.794 35.7397C135.917 35.0325 136.165 33.9185 136.501 32.3628C136.872 30.5947 137.084 29.3925 137.155 28.7382C137.173 28.6674 137.226 28.1724 137.314 27.3061C137.42 26.3161 137.509 25.5911 137.579 25.1314C137.65 24.4596 137.738 24.0707 137.809 23.9646H138.074C138.074 23.9646 138.251 23.9999 138.34 23.9999C138.658 23.9999 138.888 23.9292 139.047 23.7701C139.224 23.7701 139.383 23.8231 139.542 23.9469C139.683 24.0707 139.754 24.1944 139.754 24.3535C139.754 25.5911 139.842 27.0233 140.019 28.6321C140.125 29.4632 140.196 30.1527 140.249 30.7007C140.532 34.0423 141.257 40.319 142.424 49.5304V49.6541C142.424 49.9193 142.318 50.1138 142.106 50.2375C141.716 50.2375 141.469 50.1845 141.363 50.0961L141.381 50.0784ZM140.337 43.2185C140.072 39.4878 139.577 33.9716 138.852 26.6874L136.748 37.0656C136.147 40.0538 135.847 41.9278 135.847 42.7056C135.847 42.8296 136.342 42.9533 137.332 43.0594C138.322 43.1655 139.188 43.2185 139.931 43.2185H140.32H140.337Z" fill="black"/>
<path d="M148.577 49.707C148.011 49.4241 147.587 48.8761 147.321 48.045C147.056 47.2317 146.809 45.9235 146.596 44.1377C146.278 41.521 146.137 39.4877 146.137 38.038C146.137 37.154 146.19 36.1461 146.296 34.997L146.526 32.5394C146.65 30.5945 146.809 29.1271 146.968 28.1192C147.127 27.1292 147.516 26.2452 148.099 25.4671C148.683 24.7069 149.584 24.2473 150.804 24.1235C150.928 24.1058 151.14 24.0882 151.423 24.0882C152.219 24.0882 152.625 24.265 152.625 24.6362C152.625 24.7953 152.537 24.9368 152.378 25.0428C152.201 25.1666 152.042 25.2196 151.847 25.2196L151.458 25.1843L151.105 25.1489C150.663 25.1489 150.274 25.2904 149.92 25.5732C149.567 25.8561 149.284 26.2806 149.036 26.8109C148.488 28.1015 148.135 29.3746 147.993 30.6298C147.781 32.2565 147.657 33.6885 147.604 34.9086L147.569 37.8965C147.569 39.1695 147.604 40.1066 147.693 40.7431C147.869 41.026 147.993 41.4679 148.064 42.0513C148.135 42.6349 148.188 43.4305 148.241 44.4382C148.294 45.34 148.4 46.1179 148.594 46.7544C148.789 47.3908 149.107 47.9212 149.567 48.328C150.079 48.77 150.804 48.9822 151.706 48.9822C152.449 48.9822 152.997 48.5755 153.297 47.7444C153.669 46.8605 153.863 45.9588 153.916 45.0216C153.987 43.8548 154.04 42.8648 154.04 42.069V39.9298C153.775 39.6645 153.333 39.5407 152.678 39.5407H152.36C152.237 39.5584 152.095 39.5761 151.936 39.5761C151.317 39.5761 150.999 39.417 150.999 39.1164C150.999 38.6744 151.317 38.4623 151.936 38.4623C152.378 38.4623 152.732 38.4623 153.032 38.4976L153.881 38.533C154.376 38.6037 154.765 38.7098 155.048 38.7982C155.366 38.9043 155.507 39.0457 155.507 39.2225C155.507 39.5584 155.437 40.0359 155.278 40.6547C155.154 41.3795 155.083 41.8746 155.083 42.1397C155.083 43.236 155.101 44.2084 155.154 45.0924C155.171 45.9942 155.189 47.0019 155.189 48.0803C153.863 49.4241 152.537 50.0959 151.229 50.0959C150.044 50.0959 149.16 49.9545 148.577 49.6716V49.707Z" fill="black"/>
<path d="M159.768 49.5481V49.0354C159.786 48.9116 159.804 48.7525 159.804 48.5757L159.644 48.4166C159.857 47.8684 159.963 47.338 159.963 46.8253C159.963 46.2242 159.927 45.3756 159.839 44.2616L159.768 41.6979C159.768 40.4074 159.804 38.4625 159.892 35.8634C159.998 33.5473 160.051 31.6026 160.051 29.9936L159.981 27.6597C159.928 26.9526 159.91 26.1747 159.91 25.3259C159.91 24.9369 159.998 24.6541 160.175 24.495C160.352 24.3182 160.635 24.2475 161.024 24.2475C161.289 24.2475 161.483 24.3182 161.642 24.4773C161.695 24.5126 162.067 24.548 162.774 24.6364C163.428 24.7071 163.976 24.8309 164.454 24.99C164.949 25.1491 165.196 25.3436 165.196 25.5734C165.196 25.8386 164.949 26.0861 164.454 26.3515C162.969 25.8563 161.925 25.6088 161.306 25.6088L161.112 25.8386C161.13 26.0684 161.147 26.6343 161.147 27.5183C161.147 28.6321 161.13 29.64 161.077 30.5063C161.059 31.4079 161.041 32.4335 161.041 33.5473C161.041 34.2721 161.218 34.6436 161.589 34.6436L162.208 34.6082C162.42 34.5905 162.632 34.5728 162.862 34.5728C163.87 34.5728 164.383 34.8027 164.383 35.28C164.383 35.5629 164.312 35.8104 164.188 36.0049C164.065 36.1993 163.87 36.3054 163.605 36.3054C163.216 36.3054 162.915 36.1993 162.703 35.9872L161.466 35.7927H161.271L161.077 35.9872V36.1109C161.13 36.5529 161.147 37.5785 161.147 39.1873C161.147 40.1952 161.147 41.1145 161.112 41.9454L161.077 44.7036C161.077 45.7115 161.112 46.7546 161.2 47.8153C161.218 48.4166 161.36 48.8055 161.589 49C161.819 49.1945 162.243 49.3006 162.88 49.3006L163.587 49.2652C163.817 49.2475 164.082 49.2298 164.365 49.2298C165.125 49.2298 165.497 49.4066 165.497 49.7425C165.497 50.2022 164.931 50.4497 163.782 50.4497H160.599C160.14 50.4497 159.874 50.1845 159.821 49.6365L159.768 49.5481Z" fill="black"/>
<path d="M172.339 49.3184L172.304 47.8862C172.286 47.4796 172.268 47.0023 172.268 46.4896C172.268 46.2244 172.268 46.012 172.304 45.8352L172.339 45.1281C172.339 44.8629 172.286 44.5623 172.18 44.1911C172.18 42.4583 172.056 39.2229 171.791 34.5021C171.526 29.9407 171.384 26.8465 171.367 25.2023C169.758 25.2023 168.679 25.167 168.131 25.0786C167.618 24.9548 167.353 24.7427 167.353 24.4598C167.477 24.1769 167.724 24.0353 168.096 24.0353C168.874 24.0353 170.005 24.0883 171.473 24.1946C172.816 24.3184 173.948 24.3891 174.85 24.3891H175.663L176.476 24.3537C176.936 24.3537 177.183 24.5305 177.183 24.8664C177.183 25.0255 177.095 25.1493 176.936 25.2377C176.777 25.3261 176.565 25.3791 176.335 25.3791C175.822 25.3791 175.274 25.3614 174.708 25.3084L173.029 25.2377C172.922 25.2377 172.869 25.273 172.869 25.3614C172.852 25.4321 172.834 25.6797 172.834 26.104C172.834 28.6146 172.993 32.4337 173.294 37.5431C173.577 42.8296 173.718 46.631 173.718 48.9472C173.718 49.124 173.612 49.3007 173.382 49.4599C173.17 49.619 172.94 49.6897 172.746 49.6897L172.321 49.3715L172.339 49.3184Z" fill="black"/>
<path d="M183.884 49.3184L183.849 47.8862C183.831 47.4796 183.813 47.0023 183.813 46.4896C183.813 46.2244 183.813 46.012 183.849 45.8352L183.884 45.1281C183.884 44.8629 183.831 44.5623 183.725 44.1911C183.725 42.4583 183.601 39.2229 183.337 34.5021C183.071 29.9407 182.929 26.8465 182.913 25.2023C181.303 25.2023 180.225 25.167 179.676 25.0786C179.164 24.9548 178.899 24.7427 178.899 24.4598C179.022 24.1769 179.27 24.0353 179.641 24.0353C180.419 24.0353 181.551 24.0883 183.018 24.1946C184.361 24.3184 185.493 24.3891 186.396 24.3891H187.208L188.021 24.3537C188.481 24.3537 188.728 24.5305 188.728 24.8664C188.728 25.0255 188.641 25.1493 188.481 25.2377C188.322 25.3261 188.111 25.3791 187.881 25.3791C187.367 25.3791 186.82 25.3614 186.253 25.3084L184.575 25.2377C184.467 25.2377 184.414 25.273 184.414 25.3614C184.398 25.4321 184.38 25.6797 184.38 26.104C184.38 28.6146 184.538 32.4337 184.839 37.5431C185.122 42.8296 185.264 46.631 185.264 48.9472C185.264 49.124 185.158 49.3007 184.928 49.4599C184.715 49.619 184.485 49.6897 184.29 49.6897L183.868 49.3715L183.884 49.3184Z" fill="black"/>
<path d="M192.831 49.5481V49.0354C192.848 48.9116 192.866 48.7525 192.866 48.5757L192.707 48.4166C192.919 47.8684 193.024 47.338 193.024 46.8253C193.024 46.2242 192.99 45.3756 192.902 44.2616L192.831 41.6979C192.831 40.4074 192.866 38.4625 192.955 35.8634C193.061 33.5473 193.114 31.6026 193.114 29.9936L193.043 27.6597C192.99 26.9526 192.971 26.1747 192.971 25.3259C192.971 24.9369 193.061 24.6541 193.238 24.495C193.414 24.3182 193.697 24.2475 194.085 24.2475C194.351 24.2475 194.546 24.3182 194.705 24.4773C194.758 24.5126 195.129 24.548 195.837 24.6364C196.491 24.7071 197.038 24.8309 197.515 24.99C198.011 25.1491 198.259 25.3436 198.259 25.5734C198.259 25.8386 198.011 26.0861 197.515 26.3515C196.032 25.8563 194.987 25.6088 194.369 25.6088L194.174 25.8386C194.193 26.0684 194.209 26.6343 194.209 27.5183C194.209 28.6321 194.193 29.64 194.14 30.5063C194.122 31.4079 194.103 32.4335 194.103 33.5473C194.103 34.2721 194.28 34.6436 194.652 34.6436L195.27 34.6082C195.483 34.5905 195.694 34.5728 195.924 34.5728C196.932 34.5728 197.446 34.8027 197.446 35.28C197.446 35.5629 197.375 35.8104 197.251 36.0049C197.127 36.1993 196.932 36.3054 196.668 36.3054C196.278 36.3054 195.977 36.1993 195.765 35.9872L194.528 35.7927H194.333L194.14 35.9872V36.1109C194.193 36.5529 194.209 37.5785 194.209 39.1873C194.209 40.1952 194.209 41.1145 194.174 41.9454L194.14 44.7036C194.14 45.7115 194.174 46.7546 194.262 47.8153C194.28 48.4166 194.422 48.8055 194.652 49C194.882 49.1945 195.306 49.3006 195.942 49.3006L196.649 49.2652C196.879 49.2475 197.145 49.2298 197.428 49.2298C198.188 49.2298 198.56 49.4066 198.56 49.7425C198.56 50.2022 197.993 50.4497 196.844 50.4497H193.662C193.201 50.4497 192.937 50.1845 192.884 49.6365L192.831 49.5481Z" fill="black"/>
<path d="M209.889 49.8131C210.155 47.4616 210.279 44.2968 210.279 40.3541C210.279 38.6214 210.35 36.0047 210.509 32.504C210.685 29.2685 210.773 26.6518 210.773 24.6893C210.773 24.4594 210.88 24.2826 211.11 24.1412C211.321 24.0174 211.587 23.9467 211.87 23.9467C212.772 23.9467 213.78 24.0528 214.857 24.265C215.954 24.4771 216.485 24.7423 216.485 25.0782C216.485 25.5202 216.026 25.7323 215.123 25.7323C214.557 25.4671 213.833 25.3434 212.949 25.3434L212.488 25.3787C212.488 25.3787 212.348 25.4495 212.311 25.5025C212.276 25.5555 212.242 25.6263 212.205 25.7323C212.153 25.9445 212.1 26.0859 212.047 26.1566C212.047 27.3236 211.994 28.7026 211.888 30.2763C211.764 31.8145 211.693 33.1758 211.693 34.3603V35.7218C211.693 35.8279 211.905 35.8633 212.311 35.8456C213.638 35.8456 214.292 36.0577 214.292 36.4643C214.292 36.6765 214.187 36.8533 213.991 36.9947C213.796 37.1362 213.585 37.2069 213.355 37.2069C213.195 37.2069 212.984 37.1717 212.701 37.0831C212.435 37.0124 212.224 36.9594 212.047 36.9594C211.587 36.9594 211.34 37.596 211.34 38.8689V43.2714C211.34 43.8902 211.374 44.8095 211.464 46.0295C211.535 47.2671 211.587 48.2043 211.587 48.823C211.587 49.8661 211.269 50.3788 210.651 50.3788L209.872 49.7954L209.889 49.8131Z" fill="black"/>
<path d="M220.391 49.5479V49.0352C220.409 48.9114 220.427 48.7523 220.427 48.5755L220.269 48.4164C220.48 47.8682 220.586 47.3378 220.586 46.8251C220.586 46.224 220.551 45.3752 220.462 44.2614L220.391 41.6978C220.391 40.4072 220.427 38.4623 220.515 35.8632C220.622 33.5471 220.675 31.6022 220.675 29.9934L220.604 27.6595C220.551 26.9524 220.533 26.1743 220.533 25.3257C220.533 24.9368 220.622 24.6539 220.799 24.4948C220.976 24.318 221.258 24.2473 221.646 24.2473C221.913 24.2473 222.106 24.318 222.266 24.4771C222.319 24.5125 222.691 24.5478 223.398 24.6362C224.052 24.7069 224.599 24.8307 225.077 24.9898C225.572 25.1489 225.82 25.3434 225.82 25.5732C225.82 25.8384 225.572 26.0859 225.077 26.3513C223.591 25.8561 222.549 25.6086 221.929 25.6086L221.736 25.8384C221.752 26.0682 221.77 26.6341 221.77 27.5181C221.77 28.6319 221.752 29.6398 221.699 30.5061C221.683 31.4077 221.665 32.4333 221.665 33.5471C221.665 34.2719 221.841 34.6434 222.213 34.6434L222.831 34.6078C223.044 34.5902 223.256 34.5727 223.485 34.5727C224.493 34.5727 225.005 34.8025 225.005 35.2798C225.005 35.5627 224.936 35.8102 224.812 36.0047C224.688 36.1991 224.493 36.3052 224.229 36.3052C223.839 36.3052 223.538 36.1991 223.327 35.987L222.089 35.7925H221.894L221.699 35.987V36.1108C221.752 36.5527 221.77 37.5783 221.77 39.1871C221.77 40.195 221.77 41.1143 221.736 41.9453L221.699 44.7034C221.699 45.7113 221.736 46.7544 221.823 47.8151C221.841 48.4162 221.984 48.8053 222.213 48.9998C222.443 49.1943 222.868 49.3004 223.504 49.3004L224.211 49.265C224.44 49.2473 224.705 49.2296 224.989 49.2296C225.749 49.2296 226.121 49.4064 226.121 49.7423C226.121 50.202 225.554 50.4495 224.406 50.4495H221.222C220.762 50.4495 220.498 50.1843 220.445 49.6363L220.391 49.5479Z" fill="black"/>
<path d="M236.34 50.326C236.021 49.99 235.686 49.0884 235.332 47.6385C234.979 46.1888 234.625 44.5445 234.324 42.741C234.111 41.256 233.81 39.8061 233.422 38.3387C233.103 37.0479 232.821 36.3938 232.52 36.3938H232.396C231.831 36.3938 231.549 36.5706 231.549 36.9419C231.549 38.816 231.654 41.6449 231.866 45.4638C231.973 47.7976 232.079 49.1591 232.219 49.5481L231.902 50.2022H231.354L231.035 49.884C230.628 37.8965 230.417 29.7284 230.417 25.3789C230.417 25.0961 230.435 24.8662 230.47 24.6718C230.504 24.495 230.594 24.3182 230.717 24.1591C230.823 23.9823 231 23.8937 231.266 23.8937C232.591 23.8937 233.652 24.2121 234.448 24.8662C235.261 25.5204 235.649 26.4574 235.649 27.6597V30.5063C235.649 31.0013 235.491 31.6554 235.156 32.4865C234.837 33.3174 234.483 34.0777 234.095 34.7848L233.581 35.7574C233.865 37.0833 234.43 39.4525 235.279 42.9001C236.127 46.3479 236.586 48.1512 236.657 48.3634C236.676 48.3811 236.71 48.4518 236.747 48.5578C236.781 48.6639 236.871 48.8232 236.995 49.0177C237.171 49.389 237.259 49.6895 237.259 49.9547C237.259 50.326 237.117 50.5027 236.834 50.5027L236.286 50.3083L236.34 50.326ZM233.069 34.6964C233.457 34.2014 233.776 33.565 234.005 32.7871C234.412 31.2134 234.625 29.9405 234.625 29.021C234.625 28.4199 234.589 27.9249 234.518 27.536C234.448 27.147 234.341 26.7402 234.182 26.2982C233.865 25.3966 233.14 24.9369 231.973 24.9369C231.849 24.9369 231.742 25.043 231.654 25.2729C231.583 25.485 231.53 25.7148 231.53 25.9623C231.53 27.6951 231.549 29.2685 231.601 30.6654C231.62 32.062 231.636 33.6357 231.636 35.3684L231.707 35.4391C232.203 35.4391 232.644 35.1916 233.034 34.6964H233.069Z" fill="black"/>
<path d="M256.247 49.3889V46.8253C256.247 43.0948 256.177 40.1775 256.017 38.0735L255.893 36.6415C255.787 35.9872 255.735 35.4214 255.735 34.9264C255.735 34.0425 255.753 33.2467 255.806 32.5219L255.877 30.1173C255.877 29.3218 255.824 28.703 255.716 28.2964C255.204 28.6676 253.631 34.1132 251.014 44.6682L250.979 45.2518C250.908 45.906 250.803 46.4187 250.66 46.8076C250.589 47.0905 250.465 47.3203 250.325 47.4617C250.183 47.6208 250.024 47.6917 249.829 47.6917C249.423 47.6917 249.122 47.5855 248.927 47.3733C248.734 47.1612 248.663 46.843 248.663 46.401C248.663 45.6938 248.327 43.8903 247.673 40.9554C247.019 38.0205 246.293 35.2093 245.533 32.5219C244.773 29.8344 244.243 28.3317 243.959 28.0487C243.942 28.9505 243.837 31.0897 243.642 34.4668C243.27 40.425 243.093 45.1281 243.093 48.5403L243.129 50.0961C243.022 50.4322 242.758 50.609 242.315 50.609C242.245 50.609 242.103 50.5383 241.926 50.3968C241.75 50.2552 241.66 50.1491 241.66 50.0608C241.66 47.7271 241.874 43.6252 242.28 37.773C242.668 32.3274 242.863 28.2431 242.863 25.5204C242.863 25.3966 242.845 25.2552 242.792 25.1314C242.721 24.9723 242.668 24.8662 242.668 24.7778C242.668 24.3889 243.005 24.1944 243.676 24.1944C244.119 24.1944 244.383 24.3889 244.454 24.7778C244.56 25.2905 244.613 25.6796 244.613 25.9448L244.649 26.4045C244.773 27.0763 245.162 28.1194 245.781 29.5162C246.275 30.63 246.647 31.6026 246.911 32.4335C247.072 33.0522 247.212 33.5649 247.336 33.9541C247.742 35.4568 248.027 36.5706 248.151 37.2956L248.663 38.3033C248.734 38.6923 248.892 39.3287 249.122 40.2129C249.352 41.2029 249.529 41.9985 249.634 42.6174C249.742 43.2362 249.795 43.8373 249.795 44.403C250.077 43.9611 250.89 41.309 252.233 36.4468C253.56 31.5849 254.355 28.4731 254.586 27.1293C254.603 27.0763 254.639 27.0056 254.639 26.9172C254.639 26.8288 254.674 26.705 254.692 26.5459C254.745 26.21 254.869 25.6973 255.046 25.0253C255.257 24.5126 255.558 24.2474 255.982 24.2474C256.159 24.2474 256.371 24.3182 256.6 24.4773C256.832 24.6364 256.954 24.7955 256.954 24.9369C256.954 35.7574 257.131 41.4681 257.468 42.0871V44.1025C257.45 44.7036 257.431 45.3933 257.431 46.1711C257.431 47.8332 257.521 49.0707 257.697 49.9016C257.716 49.9193 257.75 49.9724 257.75 50.0254C257.75 50.0784 257.785 50.1492 257.803 50.2199C257.821 50.3259 257.838 50.432 257.838 50.5735C257.838 50.8565 257.75 51.1394 257.592 51.4222C257.415 51.7051 257.22 51.8465 256.99 51.8465C256.478 51.8465 256.212 51.0156 256.212 49.3536L256.247 49.3889ZM255.735 28.031H255.7L255.629 28.0663L255.753 28.1017V28.031H255.735Z" fill="black"/>
<path d="M264.769 49.4595C264.645 49.4595 264.539 49.4595 264.452 49.4948H264.133C263.568 49.4948 263.196 49.3711 263.038 49.1059C263.038 48.9291 263.143 48.77 263.355 48.6462L263.55 48.4518H264.682L264.84 48.2927L264.911 47.9391L264.946 47.4792C264.946 45.9058 264.911 44.4913 264.822 43.236L264.751 41.8038L264.682 38.9573C264.682 37.9496 264.716 36.429 264.806 34.4136L264.875 29.905C264.875 27.9424 264.806 26.4397 264.682 25.3964C264.452 25.3257 264.062 25.2727 263.513 25.2727L263.091 25.308C262.93 25.3257 262.772 25.3434 262.577 25.3434C262.083 25.3434 261.835 25.1312 261.835 24.6893C261.835 24.5832 261.959 24.4771 262.188 24.371C262.418 24.265 262.613 24.2119 262.772 24.2119C263.761 24.2119 264.751 24.265 265.724 24.371C266.326 24.4064 266.909 24.5125 267.51 24.7246C267.97 24.8837 268.217 25.0959 268.217 25.3787C268.217 25.4318 268.181 25.5379 268.094 25.6971L267.191 25.7679C267.015 25.6086 266.626 25.538 266.06 25.538L265.866 25.6616C265.936 25.8916 265.99 26.5811 265.99 27.7303C265.99 29.4453 265.99 30.9836 265.954 32.3626L265.883 36.9949C265.883 38.1617 265.936 39.5763 266.043 41.2381C266.112 43.13 266.167 44.562 266.167 45.5168V46.0295C266.149 46.2063 266.131 46.4538 266.131 46.7367C266.131 47.3378 266.167 47.6916 266.255 47.833L266.22 47.9037C266.22 48.1689 266.502 48.2927 267.067 48.2927C267.297 48.2927 267.492 48.2927 267.651 48.2573H268.236C268.996 48.2573 269.366 48.4341 269.366 48.8054C269.366 49.0352 269.296 49.2297 269.136 49.3711C268.978 49.5125 268.766 49.5832 268.518 49.5832C268.289 49.5832 268.075 49.5656 267.899 49.5125C267.687 49.4948 267.474 49.4772 267.244 49.4772C267.086 49.4772 266.856 49.5479 266.537 49.6716C266.22 49.8307 265.99 49.9015 265.83 49.9015C265.228 49.9015 264.875 49.7777 264.787 49.5125L264.769 49.4595Z" fill="black"/>
<path d="M274.988 22.1611C273.946 21.7899 273.363 21.5777 273.255 21.507C273.097 21.56 272.885 21.5777 272.637 21.5777C271.753 21.5777 271.31 21.3123 271.31 20.7996C271.31 20.34 271.382 20.0394 271.542 19.951H271.772C272.548 19.951 273.062 20.0925 273.292 20.3753C273.292 20.393 273.45 20.4461 273.751 20.5344C274.017 20.6052 274.529 20.7996 275.307 21.1179C275.925 21.3832 276.456 21.6307 276.899 21.8606C277.392 22.1434 277.64 22.3909 277.64 22.6031C277.64 22.6738 277.587 22.7445 277.482 22.8153C277.376 22.886 277.27 22.9036 277.163 22.9036C276.74 22.7799 276.015 22.5324 274.97 22.1611H274.988ZM272.902 49.5481V49.0354C272.92 48.9114 272.938 48.7523 272.938 48.5755L272.779 48.4164C272.991 47.8683 273.097 47.338 273.097 46.8253C273.097 46.224 273.062 45.3754 272.973 44.2616L272.902 41.6979C272.902 40.4072 272.938 38.4625 273.026 35.8634C273.133 33.5473 273.186 31.6024 273.186 29.9936L273.115 27.6597C273.062 26.9526 273.044 26.1745 273.044 25.3259C273.044 24.9369 273.133 24.6541 273.31 24.495C273.487 24.3182 273.769 24.2473 274.157 24.2473C274.423 24.2473 274.617 24.3182 274.777 24.4773C274.83 24.5126 275.202 24.548 275.909 24.6364C276.561 24.7071 277.11 24.8309 277.588 24.99C278.083 25.1491 278.331 25.3436 278.331 25.5734C278.331 25.8386 278.083 26.0861 277.588 26.3513C276.102 25.8563 275.06 25.6088 274.44 25.6088L274.247 25.8386C274.263 26.0684 274.281 26.6341 274.281 27.5183C274.281 28.6321 274.263 29.64 274.21 30.5063C274.194 31.4079 274.176 32.4335 274.176 33.5473C274.176 34.2721 274.352 34.6434 274.724 34.6434L275.342 34.608C275.555 34.5903 275.767 34.5727 275.996 34.5727C277.004 34.5727 277.516 34.8025 277.516 35.28C277.516 35.5629 277.447 35.8104 277.323 36.0049C277.199 36.1993 277.004 36.3054 276.74 36.3054C276.35 36.3054 276.049 36.1993 275.838 35.9872L274.6 35.7927H274.405L274.21 35.9872V36.1109C274.263 36.5529 274.281 37.5783 274.281 39.1873C274.281 40.195 274.281 41.1145 274.247 41.9454L274.21 44.7036C274.21 45.7113 274.247 46.7546 274.334 47.8153C274.352 48.4164 274.495 48.8053 274.724 48.9998C274.954 49.1945 275.379 49.3005 276.015 49.3005L276.722 49.2652C276.951 49.2475 277.216 49.2298 277.5 49.2298C278.26 49.2298 278.63 49.4066 278.63 49.7425C278.63 50.2022 278.065 50.4497 276.917 50.4497H273.733C273.273 50.4497 273.009 50.1845 272.956 49.6365L272.902 49.5481Z" fill="black"/>
<path d="M288.849 50.326C288.532 49.99 288.197 49.0884 287.843 47.6385C287.49 46.1888 287.136 44.5445 286.835 42.741C286.622 41.256 286.321 39.8061 285.933 38.3387C285.614 37.0479 285.332 36.3938 285.031 36.3938H284.907C284.342 36.3938 284.06 36.5706 284.06 36.9419C284.06 38.816 284.165 41.6449 284.377 45.4638C284.482 47.7976 284.59 49.1591 284.73 49.5481L284.413 50.2022H283.865L283.546 49.884C283.139 37.8965 282.928 29.7284 282.928 25.3789C282.928 25.0961 282.944 24.8662 282.981 24.6718C283.015 24.495 283.105 24.3182 283.228 24.1591C283.334 23.9823 283.511 23.8937 283.775 23.8937C285.102 23.8937 286.163 24.2121 286.959 24.8662C287.772 25.5204 288.16 26.4574 288.16 27.6597V30.5063C288.16 31.0013 288.002 31.6554 287.666 32.4865C287.348 33.3174 286.994 34.0777 286.604 34.7848L286.092 35.7574C286.374 37.0833 286.941 39.4525 287.789 42.9001C288.638 46.3479 289.097 48.1512 289.168 48.3634C289.187 48.3811 289.221 48.4518 289.258 48.5578C289.292 48.6639 289.38 48.8232 289.504 49.0177C289.68 49.389 289.77 49.6895 289.77 49.9547C289.77 50.326 289.628 50.5027 289.345 50.5027L288.796 50.3083L288.849 50.326ZM285.58 34.6964C285.968 34.2014 286.287 33.565 286.516 32.7871C286.923 31.2134 287.136 29.9405 287.136 29.021C287.136 28.4199 287.1 27.9249 287.029 27.536C286.959 27.147 286.852 26.7402 286.693 26.2982C286.374 25.3966 285.651 24.9369 284.482 24.9369C284.36 24.9369 284.253 25.043 284.165 25.2729C284.094 25.485 284.041 25.7148 284.041 25.9623C284.041 27.6951 284.06 29.2685 284.112 30.6654C284.129 32.062 284.147 33.6357 284.147 35.3684L284.218 35.4391C284.714 35.4391 285.155 35.1916 285.543 34.6964H285.58Z" fill="black"/>
<path d="M294.137 49.5479V49.0352C294.155 48.9114 294.171 48.7523 294.171 48.5755L294.013 48.4164C294.226 47.8682 294.332 47.3378 294.332 46.8251C294.332 46.224 294.295 45.3752 294.208 44.2614L294.137 41.6978C294.137 40.4072 294.171 38.4623 294.261 35.8632C294.366 33.5471 294.419 31.6022 294.419 29.9934L294.348 27.6595C294.295 26.9524 294.279 26.1743 294.279 25.3257C294.279 24.9368 294.366 24.6539 294.543 24.4948C294.72 24.318 295.002 24.2473 295.392 24.2473C295.657 24.2473 295.852 24.318 296.01 24.4771C296.063 24.5125 296.435 24.5478 297.142 24.6362C297.796 24.7069 298.345 24.8307 298.823 24.9898C299.317 25.1489 299.564 25.3434 299.564 25.5732C299.564 25.8384 299.317 26.0859 298.823 26.3513C297.337 25.8561 296.293 25.6086 295.675 25.6086L295.48 25.8384C295.498 26.0682 295.516 26.6341 295.516 27.5181C295.516 28.6319 295.498 29.6398 295.445 30.5061C295.427 31.4077 295.409 32.4333 295.409 33.5471C295.409 34.2719 295.586 34.6434 295.957 34.6434L296.577 34.6078C296.789 34.5902 297.002 34.5727 297.231 34.5727C298.239 34.5727 298.752 34.8025 298.752 35.2798C298.752 35.5627 298.68 35.8102 298.556 36.0047C298.433 36.1991 298.239 36.3052 297.973 36.3052C297.585 36.3052 297.284 36.1991 297.071 35.987L295.834 35.7925H295.64L295.445 35.987V36.1108C295.498 36.5527 295.516 37.5783 295.516 39.1871C295.516 40.195 295.516 41.1143 295.48 41.9453L295.445 44.7034C295.445 45.7113 295.48 46.7544 295.569 47.8151C295.586 48.4162 295.728 48.8053 295.957 48.9998C296.187 49.1943 296.612 49.3004 297.248 49.3004L297.955 49.265C298.185 49.2473 298.451 49.2296 298.733 49.2296C299.493 49.2296 299.865 49.4064 299.865 49.7423C299.865 50.202 299.3 50.4495 298.15 50.4495H294.968C294.509 50.4495 294.242 50.1843 294.19 49.6363L294.137 49.5479Z" fill="black"/>
</g>
</g>
<defs>
<clipPath id="clip0_256_16447">
<rect width="300" height="70.8991" fill="white" transform="translate(0 0.449219)"/>
</clipPath>
</defs>
</svg>
