<svg width="36" height="36" viewBox="0 0 36 36" fill="none" xmlns="http://www.w3.org/2000/svg">
<path d="M28.5 7.5H25.5V6C25.5 4.80653 25.0259 3.66193 24.182 2.81802C23.3381 1.97411 22.1935 1.5 21 1.5H4.5C3.30653 1.5 2.16193 1.97411 1.31802 2.81802C0.474106 3.66193 0 4.80653 0 6L0 28.5H3.0615C3.0229 28.7482 3.00235 28.9988 3 29.25C3 30.6424 3.55312 31.9777 4.53769 32.9623C5.52226 33.9469 6.85761 34.5 8.25 34.5C9.64239 34.5 10.9777 33.9469 11.9623 32.9623C12.9469 31.9777 13.5 30.6424 13.5 29.25C13.4976 28.9988 13.4771 28.7482 13.4385 28.5H22.5615C22.5229 28.7482 22.5024 28.9988 22.5 29.25C22.5 30.6424 23.0531 31.9777 24.0377 32.9623C25.0223 33.9469 26.3576 34.5 27.75 34.5C29.1424 34.5 30.4777 33.9469 31.4623 32.9623C32.4469 31.9777 33 30.6424 33 29.25C32.9977 28.9988 32.9771 28.7482 32.9385 28.5H36V15C35.9976 13.0116 35.2067 11.1053 33.8007 9.69933C32.3947 8.29332 30.4884 7.50238 28.5 7.5ZM28.5 10.5C29.6935 10.5 30.8381 10.9741 31.682 11.818C32.5259 12.6619 33 13.8065 33 15V16.5H25.5V10.5H28.5ZM10.5 29.25C10.5 29.8467 10.2629 30.419 9.84099 30.841C9.41903 31.2629 8.84674 31.5 8.25 31.5C7.65326 31.5 7.08097 31.2629 6.65901 30.841C6.23705 30.419 6 29.8467 6 29.25C6.00092 28.9936 6.04818 28.7395 6.1395 28.5H10.3605C10.4518 28.7395 10.4991 28.9936 10.5 29.25ZM22.5 25.5H3V6C3 5.60218 3.15804 5.22064 3.43934 4.93934C3.72064 4.65804 4.10218 4.5 4.5 4.5H21C21.3978 4.5 21.7794 4.65804 22.0607 4.93934C22.342 5.22064 22.5 5.60218 22.5 6V25.5ZM30 29.25C30 29.8467 29.7629 30.419 29.341 30.841C28.919 31.2629 28.3467 31.5 27.75 31.5C27.1533 31.5 26.581 31.2629 26.159 30.841C25.7371 30.419 25.5 29.8467 25.5 29.25C25.5007 28.9936 25.5479 28.7395 25.6395 28.5H29.8605C29.9521 28.7395 29.9993 28.9936 30 29.25ZM25.5 25.5V19.5H33V25.5H25.5Z" fill="black"/>
</svg>
