<svg width="36" height="36" viewBox="0 0 36 36" fill="none" xmlns="http://www.w3.org/2000/svg">
<g clip-path="url(#clip0_59_508)">
<path d="M18 9C16.8133 9 15.6533 9.35189 14.6666 10.0112C13.6799 10.6705 12.9109 11.6075 12.4567 12.7039C12.0026 13.8003 11.8838 15.0067 12.1153 16.1705C12.3468 17.3344 12.9182 18.4035 13.7574 19.2426C14.5965 20.0818 15.6656 20.6532 16.8295 20.8847C17.9933 21.1162 19.1997 20.9974 20.2961 20.5433C21.3925 20.0892 22.3295 19.3201 22.9888 18.3334C23.6481 17.3467 24 16.1867 24 15C24 13.4087 23.3679 11.8826 22.2426 10.7574C21.1174 9.63214 19.5913 9 18 9ZM18 18C17.4067 18 16.8266 17.8241 16.3333 17.4944C15.8399 17.1648 15.4554 16.6962 15.2284 16.148C15.0013 15.5999 14.9419 14.9967 15.0576 14.4147C15.1734 13.8328 15.4591 13.2982 15.8787 12.8787C16.2982 12.4591 16.8328 12.1734 17.4147 12.0576C17.9967 11.9419 18.5999 12.0013 19.1481 12.2284C19.6962 12.4554 20.1648 12.8399 20.4944 13.3333C20.8241 13.8266 21 14.4067 21 15C21 15.7956 20.6839 16.5587 20.1213 17.1213C19.5587 17.6839 18.7957 18 18 18Z" fill="black"/>
<path d="M18 36C16.7369 36.0065 15.4906 35.7102 14.3656 35.1361C13.2405 34.5619 12.2694 33.7266 11.5335 32.7C5.81698 24.8145 2.91748 18.8865 2.91748 15.0795C2.91748 11.0794 4.50652 7.24309 7.33504 4.41457C10.1636 1.58605 13.9999 -0.00299072 18 -0.00299072C22.0001 -0.00299072 25.8364 1.58605 28.6649 4.41457C31.4934 7.24309 33.0825 11.0794 33.0825 15.0795C33.0825 18.8865 30.183 24.8145 24.4665 32.7C23.7306 33.7266 22.7595 34.5619 21.6344 35.1361C20.5093 35.7102 19.2631 36.0065 18 36ZM18 3.27151C14.8686 3.27508 11.8665 4.5206 9.65229 6.73482C7.43807 8.94903 6.19255 11.9511 6.18898 15.0825C6.18898 18.0975 9.02848 23.673 14.1825 30.7815C14.62 31.3842 15.194 31.8747 15.8576 32.2129C16.5211 32.5511 17.2552 32.7275 18 32.7275C18.7447 32.7275 19.4789 32.5511 20.1424 32.2129C20.8059 31.8747 21.3799 31.3842 21.8175 30.7815C26.9715 23.673 29.811 18.0975 29.811 15.0825C29.8074 11.9511 28.5619 8.94903 26.3477 6.73482C24.1335 4.5206 21.1314 3.27508 18 3.27151Z" fill="black"/>
</g>
<defs>
<clipPath id="clip0_59_508">
<rect width="36" height="36" fill="white"/>
</clipPath>
</defs>
</svg>
